<svg width="457" height="100" viewBox="0 0 457 100" fill="none" xmlns="http://www.w3.org/2000/svg">
<path d="M5.65025 37.1922C2.5297 33.1005 3.08162 27.4333 6.88299 24.5341V24.5341C10.6844 21.635 16.2957 22.6017 19.4162 26.6934L58.8003 78.334C61.9208 82.4256 61.3689 88.0928 57.5675 90.992V90.992C53.7661 93.8911 48.1548 92.9244 45.0343 88.8327L5.65025 37.1922Z" fill="#4DD444"/>
<rect x="36.6478" y="38.2128" width="36.6299" height="77.6496" rx="18.315" transform="rotate(-37.3312 36.6478 38.2128)" fill="#4DD444"/>
<circle cx="112.504" cy="38.9077" r="16.9077" fill="#4DD444"/>
<path d="M221.836 35.28V58.88C221.836 65.12 220.209 69.9733 216.956 73.44C213.703 76.8533 209.036 78.56 202.956 78.56C196.396 78.56 191.676 76.3467 188.796 71.92C187.303 74.16 185.383 75.84 183.036 76.96C180.743 78.0267 177.943 78.56 174.636 78.56C168.556 78.56 163.889 76.8533 160.636 73.44C157.436 69.9733 155.836 65.12 155.836 58.88V35.28H165.836V58C165.836 62.0533 166.529 65.04 167.916 66.96C169.356 68.88 171.623 69.84 174.716 69.84C177.809 69.84 180.103 68.88 181.596 66.96C183.089 64.9867 183.836 62 183.836 58V35.28H193.836V58C193.836 62 194.583 64.9867 196.076 66.96C197.569 68.88 199.863 69.84 202.956 69.84C206.049 69.84 208.289 68.88 209.676 66.96C211.116 65.04 211.836 62.0533 211.836 58V35.28H221.836ZM276.354 35.28V78H266.834V72.48C265.18 74.5067 263.127 76.0267 260.674 77.04C258.274 78.0533 255.607 78.56 252.674 78.56C248.514 78.56 244.78 77.6533 241.474 75.84C238.22 74.0267 235.66 71.4667 233.794 68.16C231.98 64.8533 231.074 61.0133 231.074 56.64C231.074 52.2667 231.98 48.4533 233.794 45.2C235.66 41.8933 238.22 39.3333 241.474 37.52C244.78 35.7067 248.514 34.8 252.674 34.8C255.447 34.8 257.98 35.28 260.274 36.24C262.62 37.2 264.647 38.6133 266.354 40.48V35.28H276.354ZM253.794 70C257.474 70 260.514 68.7733 262.914 66.32C265.314 63.8667 266.514 60.64 266.514 56.64C266.514 52.64 265.314 49.4133 262.914 46.96C260.514 44.5067 257.474 43.28 253.794 43.28C250.114 43.28 247.074 44.5067 244.674 46.96C242.327 49.4133 241.154 52.64 241.154 56.64C241.154 60.64 242.327 63.8667 244.674 66.32C247.074 68.7733 250.114 70 253.794 70ZM330.797 35.28V71.52C330.797 86.56 323.411 94.08 308.637 94.08C304.744 94.08 301.011 93.5467 297.437 92.48C293.917 91.4667 291.011 89.9733 288.717 88L293.197 80.48C295.011 82.0267 297.224 83.2533 299.837 84.16C302.451 85.0667 305.197 85.52 308.077 85.52C312.451 85.52 315.651 84.4533 317.677 82.32C319.757 80.24 320.797 77.0133 320.797 72.64V70.64C319.197 72.4 317.251 73.76 314.957 74.72C312.664 75.6267 310.184 76.08 307.517 76.08C301.811 76.08 297.304 74.5067 293.997 71.36C290.744 68.2133 289.117 63.4933 289.117 57.2V35.28H299.117V55.92C299.117 59.7067 299.971 62.56 301.677 64.48C303.437 66.3467 305.917 67.28 309.117 67.28C312.691 67.28 315.517 66.1867 317.597 64C319.731 61.8133 320.797 58.64 320.797 54.48V35.28H330.797ZM385.651 35.28V78H376.131V72.48C374.477 74.5067 372.424 76.0267 369.971 77.04C367.571 78.0533 364.904 78.56 361.971 78.56C357.811 78.56 354.077 77.6533 350.771 75.84C347.517 74.0267 344.957 71.4667 343.091 68.16C341.277 64.8533 340.371 61.0133 340.371 56.64C340.371 52.2667 341.277 48.4533 343.091 45.2C344.957 41.8933 347.517 39.3333 350.771 37.52C354.077 35.7067 357.811 34.8 361.971 34.8C364.744 34.8 367.277 35.28 369.571 36.24C371.917 37.2 373.944 38.6133 375.651 40.48V35.28H385.651ZM363.091 70C366.771 70 369.811 68.7733 372.211 66.32C374.611 63.8667 375.811 60.64 375.811 56.64C375.811 52.64 374.611 49.4133 372.211 46.96C369.811 44.5067 366.771 43.28 363.091 43.28C359.411 43.28 356.371 44.5067 353.971 46.96C351.624 49.4133 350.451 52.64 350.451 56.64C350.451 60.64 351.624 63.8667 353.971 66.32C356.371 68.7733 359.411 70 363.091 70Z" fill="#4411AA"/>
</svg>
